# xmcd
#
# Track frame offsets:
#	183
#	13378
#	26873
#
# Disc length: 532 seconds
#
# Revision: 0
# Processed by: cddbd v1.5.2PL0 Copyright (c) Steve Scherf et al.
# Submitted via: audiograbber 1.83.01
#
DISCID=22021203
DTITLE=Manuela Weiden - Du hast mi richtig durcheinander bracht
DYEAR=2004
DGENRE=Volksmusik
TTITLE0=Du hast mi richtig durcheinander bracht
TTITLE1=Bei mir brauchst du mehr als coole Sprüche
TTITLE2=Schmusemaus und Kuschelbär
EXTD=<http://www.hit-radio24.de> \n
EXTT0=
EXTT1=
EXTT2=
PLAYORDER=
